<svg width="1304" height="960" viewBox="0 0 1304 960" fill="none" xmlns="http://www.w3.org/2000/svg">
<path d="M1407.36 627.132C1648.31 695.566 1854.9 798.116 1994.12 908.577C2063.73 963.808 2116.49 1021 2148.28 1076.88C2180.07 1132.75 2190.89 1187.27 2176.71 1237.19C2162.53 1287.12 2124.67 1327.81 2068.25 1358.63C2011.84 1389.45 1936.9 1410.38 1848.65 1420.78C1672.15 1441.56 1442.5 1420.22 1201.55 1351.78C960.599 1283.35 754.014 1180.8 614.791 1070.34C545.178 1015.11 492.427 957.914 460.635 902.04C428.843 846.167 418.027 791.649 432.207 741.724C446.386 691.799 484.244 651.105 540.658 620.284C597.074 589.462 672.012 568.535 760.264 558.14C936.764 537.35 1166.41 558.698 1407.36 627.132Z" stroke="#2E2E2E"/>
<path d="M1413.67 628.983C1653.39 701.612 1858.15 807.752 1995.43 920.626C2064.07 977.064 2115.81 1035.17 2146.62 1091.59C2177.44 1148.01 2187.3 1202.71 2172.25 1252.38C2157.2 1302.05 2118.64 1342.07 2061.7 1371.91C2004.75 1401.74 1929.46 1421.35 1841.04 1430.21C1664.2 1447.91 1434.96 1422.56 1195.24 1349.93C955.522 1277.3 750.758 1171.16 613.484 1058.29C544.846 1001.85 493.102 943.747 462.289 887.326C431.477 830.907 421.614 776.209 436.663 726.539C451.712 676.869 490.274 636.842 547.217 607.01C604.163 577.178 679.455 557.562 767.874 548.709C944.71 531.002 1173.95 556.355 1413.67 628.983Z" stroke="#2E2E2E"/>
<path d="M1419.95 630.944C1658.36 707.745 1861.24 817.443 1996.52 932.695C2064.17 990.322 2114.89 1049.32 2144.71 1106.27C2174.54 1163.22 2183.44 1218.08 2167.53 1267.48C2151.62 1316.88 2112.36 1356.23 2054.91 1385.06C1997.45 1413.9 1921.83 1432.2 1833.26 1439.5C1656.15 1454.12 1427.38 1424.77 1188.97 1347.97C950.552 1271.17 747.671 1161.47 612.388 1046.22C544.746 988.593 494.023 929.594 464.2 872.643C434.378 815.695 425.471 760.833 441.384 711.433C457.297 662.033 496.552 622.686 554.007 593.852C611.465 565.018 687.088 546.719 775.648 539.411C952.767 524.793 1181.53 554.142 1419.95 630.944Z" stroke="#2E2E2E"/>
<path d="M1426.19 633.014C1663.22 713.965 1864.16 827.187 1997.41 944.782C2064.04 1003.58 2113.72 1063.46 2142.55 1120.92C2171.37 1178.38 2179.32 1233.39 2162.55 1282.5C2145.77 1331.62 2105.84 1370.27 2047.89 1398.1C1989.94 1425.93 1914 1442.9 1825.33 1448.66C1647.98 1460.19 1419.77 1426.85 1182.73 1345.9C945.69 1264.95 744.754 1151.73 611.503 1034.13C544.877 975.334 495.191 915.459 466.367 857.997C437.543 800.537 429.595 745.528 446.368 696.413C463.141 647.299 503.077 608.642 561.026 580.816C618.978 552.989 694.909 536.013 783.583 530.251C960.93 518.726 1189.15 552.064 1426.19 633.014Z" stroke="#2E2E2E"/>
<path d="M1432.39 635.193C1667.98 720.268 1866.91 836.98 1998.08 956.883C2063.67 1016.84 2112.31 1077.57 2140.12 1135.53C2167.94 1193.48 2174.93 1248.62 2157.3 1297.43C2139.67 1346.25 2099.07 1384.2 2040.64 1411.01C1982.21 1437.82 1906 1453.47 1817.24 1457.69C1639.72 1466.11 1412.12 1428.8 1176.53 1343.72C940.936 1258.65 742.007 1141.94 610.829 1022.03C545.239 962.08 496.606 901.347 468.788 843.391C440.972 785.436 433.985 730.297 451.612 681.482C469.24 632.668 509.844 594.714 568.271 567.904C626.699 541.092 702.915 525.444 791.676 521.23C969.197 512.803 1196.8 550.118 1432.39 635.193Z" stroke="#2E2E2E"/>
<path d="M1438.55 637.48C1672.62 726.654 1869.48 846.819 1998.55 968.993C2063.08 1030.08 2110.65 1091.65 2137.45 1150.09C2164.25 1208.52 2170.27 1263.77 2151.8 1312.27C2133.32 1360.77 2092.06 1398.01 2033.17 1423.8C1974.29 1449.58 1897.81 1463.9 1808.99 1466.56C1631.35 1471.89 1404.43 1430.61 1170.36 1341.44C936.294 1252.26 739.432 1132.1 610.366 1009.92C545.832 948.834 498.267 887.261 471.465 828.828C444.664 770.397 438.641 715.144 457.117 666.645C475.594 618.146 516.855 580.906 575.74 555.12C634.628 529.332 711.105 515.016 799.927 512.352C977.567 507.024 1204.48 548.306 1438.55 637.48Z" stroke="#2E2E2E"/>
<path d="M1444.67 639.873C1677.15 733.118 1871.88 856.701 1998.8 981.109C2062.26 1043.31 2108.74 1105.71 2134.52 1164.6C2160.3 1223.49 2165.35 1278.84 2146.03 1327.01C2126.71 1375.18 2084.81 1411.69 2025.48 1436.45C1966.15 1461.2 1889.44 1474.18 1800.58 1475.3C1622.88 1477.52 1396.72 1432.29 1164.24 1339.04C931.763 1245.8 737.029 1122.21 610.115 997.805C546.657 935.6 500.173 873.206 474.395 814.314C448.618 755.425 443.56 700.075 462.881 651.905C482.201 603.736 524.105 567.222 583.432 542.467C642.76 517.711 719.476 504.732 808.33 503.619C986.037 501.392 1212.2 546.628 1444.67 639.873Z" stroke="#2E2E2E"/>
<path d="M1450.75 642.373C1681.57 739.661 1874.11 866.624 1998.84 993.228C2061.2 1056.53 2106.59 1119.73 2131.33 1179.06C2156.08 1238.39 2160.17 1293.82 2140.01 1341.64C2119.86 1389.47 2077.32 1425.25 2017.57 1448.96C1957.82 1472.68 1880.89 1484.32 1792.03 1483.88C1614.31 1483 1388.97 1433.83 1158.16 1336.54C927.346 1239.25 734.798 1112.29 610.075 985.685C547.712 922.382 502.324 859.187 477.578 799.854C452.833 740.523 448.741 685.094 468.9 637.269C489.058 589.444 531.593 553.667 591.342 529.951C651.094 506.234 728.024 494.596 816.885 495.034C994.603 495.909 1219.94 545.084 1450.75 642.373Z" stroke="#2E2E2E"/>
<path d="M1456.79 644.979C1685.87 746.281 1876.17 876.584 1998.67 1005.35C2059.92 1069.73 2104.19 1133.71 2127.9 1193.46C2151.61 1253.21 2154.73 1308.71 2133.74 1356.17C2112.75 1403.64 2069.6 1438.67 2009.44 1461.34C1949.29 1484.01 1872.16 1494.3 1783.33 1492.31C1605.65 1488.34 1381.21 1435.24 1152.13 1333.93C923.044 1232.63 732.741 1102.33 610.247 973.567C548.998 909.185 504.72 845.207 481.013 785.452C457.307 725.698 454.184 670.206 475.174 622.74C496.164 575.274 539.317 540.245 599.471 517.576C659.627 494.905 736.749 484.611 825.588 486.6C1003.26 490.576 1227.71 543.677 1456.79 644.979Z" stroke="#2E2E2E"/>
<path d="M1462.78 647.69C1690.06 752.975 1878.05 886.58 1998.28 1017.46C2058.4 1082.9 2101.55 1147.64 2124.21 1207.8C2146.87 1267.96 2149.03 1323.5 2127.21 1370.59C2105.4 1417.68 2061.64 1451.95 2001.1 1473.57C1940.56 1495.19 1863.27 1504.13 1774.48 1500.59C1596.9 1493.52 1373.42 1436.51 1146.14 1331.22C918.858 1225.94 730.858 1092.33 610.63 961.454C550.514 896.013 507.36 831.273 484.699 771.112C462.039 710.954 459.885 655.416 481.7 608.323C503.515 561.231 547.273 526.961 607.813 505.344C668.357 483.727 745.646 474.781 834.437 478.32C1012.02 485.396 1235.5 542.406 1462.78 647.69Z" stroke="#2E2E2E"/>
<path d="M1468.72 650.506C1694.12 759.741 1879.76 896.606 1997.69 1029.56C2056.65 1096.04 2098.67 1161.53 2120.28 1222.08C2141.88 1282.62 2143.07 1338.19 2120.44 1384.89C2097.8 1431.6 2053.45 1465.1 1992.54 1485.65C1931.63 1506.21 1854.2 1513.81 1765.48 1508.72C1588.05 1498.55 1365.6 1437.64 1140.2 1328.41C914.789 1219.17 729.15 1082.31 611.224 949.35C552.26 882.87 510.241 817.386 488.634 756.839C467.028 696.295 465.843 640.727 488.477 594.023C511.11 547.318 555.459 513.817 616.368 493.26C677.279 472.703 754.713 465.107 843.429 470.195C1020.86 480.369 1243.31 541.271 1468.72 650.506Z" stroke="#2E2E2E"/>
<path d="M1474.61 653.423C1698.07 766.576 1881.3 906.66 1996.88 1041.66C2054.68 1109.16 2095.55 1175.36 2116.09 1236.28C2136.64 1297.19 2136.86 1352.77 2113.41 1399.07C2089.97 1445.37 2045.04 1478.1 1983.78 1497.59C1922.52 1517.08 1844.97 1523.32 1756.35 1516.69C1579.13 1503.42 1357.77 1438.64 1134.31 1325.49C910.84 1212.34 727.618 1072.25 612.03 937.256C554.235 869.757 513.366 803.55 492.819 742.636C472.272 681.723 472.057 626.143 495.503 579.841C518.948 533.539 563.875 500.816 625.133 481.326C686.394 461.835 763.948 455.592 852.562 462.227C1029.79 475.497 1251.14 540.271 1474.61 653.423Z" stroke="#2E2E2E"/>
<path d="M1480.45 656.444C1701.9 773.479 1882.65 916.74 1995.87 1053.73C2052.48 1122.23 2092.18 1189.14 2111.66 1250.4C2131.14 1311.67 2130.39 1367.24 2106.14 1413.13C2081.89 1459.01 2036.4 1490.95 1974.81 1509.37C1913.22 1527.78 1835.57 1532.67 1747.08 1524.49C1570.12 1508.13 1349.92 1439.5 1128.47 1322.47C907.01 1205.43 726.261 1062.17 613.046 925.18C556.438 856.682 516.731 789.772 497.25 728.508C477.77 667.247 478.525 611.671 502.775 565.785C527.025 519.899 572.516 487.966 634.105 469.548C695.696 451.129 773.348 446.24 861.832 454.42C1038.8 470.781 1258.99 539.409 1480.45 656.444Z" stroke="#2E2E2E"/>
<path d="M1486.23 659.565C1705.61 780.448 1883.83 926.841 1994.64 1065.79C2050.04 1135.26 2088.58 1202.86 2106.99 1264.45C2125.4 1326.04 2123.67 1381.6 2098.62 1427.05C2073.58 1472.51 2027.53 1503.64 1965.63 1520.98C1903.73 1538.33 1826 1541.86 1737.68 1532.14C1561.02 1512.69 1342.06 1440.23 1122.68 1319.35C903.302 1198.46 725.08 1052.07 614.274 913.122C558.87 843.647 520.336 776.054 501.927 714.46C483.519 652.867 485.244 597.314 510.291 551.858C535.338 506.402 581.38 475.267 643.281 457.927C705.185 440.586 782.91 437.053 871.238 446.776C1047.89 466.223 1266.85 538.683 1486.23 659.565Z" stroke="#2E2E2E"/>
<path d="M1491.96 662.789C1709.2 787.481 1884.84 936.963 1993.2 1077.82C2047.39 1148.26 2084.73 1216.51 2102.06 1278.42C2119.4 1340.32 2116.7 1395.84 2090.86 1440.85C2065.03 1485.86 2018.45 1516.19 1956.26 1532.44C1894.06 1548.7 1816.28 1550.88 1728.14 1539.61C1551.85 1517.09 1334.19 1440.82 1116.95 1316.12C899.715 1191.43 724.075 1041.95 615.71 901.089C561.527 830.658 524.179 762.403 506.849 700.496C489.518 638.592 492.212 583.077 518.049 538.065C543.885 493.053 590.463 462.727 652.658 446.47C714.854 430.211 792.629 428.036 880.774 439.299C1057.06 461.826 1274.72 538.097 1491.96 662.789Z" stroke="#2E2E2E"/>
<path d="M1497.63 666.112C1712.66 794.576 1885.67 947.101 1991.56 1089.83C2044.5 1161.2 2080.65 1230.09 2096.9 1292.29C2113.15 1354.49 2109.49 1409.95 2082.87 1454.5C2056.25 1499.06 2009.15 1528.57 1946.68 1543.74C1884.21 1558.91 1806.41 1559.73 1718.47 1546.93C1542.61 1521.32 1326.31 1441.27 1111.28 1312.8C896.252 1184.34 723.247 1031.81 617.358 889.083C564.412 817.717 528.261 748.82 512.013 686.62C495.766 624.423 499.429 568.964 526.047 524.41C552.665 479.856 599.765 450.347 662.233 435.177C724.704 420.007 802.506 419.189 890.44 431.989C1066.31 457.589 1282.61 537.647 1497.63 666.112Z" stroke="#2E2E2E"/>
<path d="M1503.25 669.532C1716 801.73 1886.32 957.25 1989.7 1101.81C2041.39 1174.09 2076.33 1243.6 2091.49 1306.08C2106.65 1368.55 2102.02 1423.94 2074.63 1468.02C2047.24 1512.1 1999.63 1540.78 1936.91 1554.86C1874.18 1568.94 1796.38 1568.4 1708.68 1554.07C1533.29 1525.4 1318.42 1441.58 1105.67 1309.38C892.913 1177.18 722.597 1021.66 619.214 877.106C567.522 804.827 532.579 735.31 517.419 672.836C502.26 610.365 506.89 554.978 534.281 510.895C561.673 466.812 609.281 438.13 672.005 424.053C734.731 409.975 812.535 410.515 900.232 424.848C1075.63 453.513 1290.49 537.334 1503.25 669.532Z" stroke="#2E2E2E"/>
<path d="M1508.8 673.05C1719.21 808.941 1886.79 967.41 1987.63 1113.75C2038.06 1186.92 2071.78 1257.04 2085.85 1319.76C2099.92 1382.49 2094.32 1437.79 2066.16 1481.39C2038.01 1524.99 1989.9 1552.83 1926.94 1565.81C1863.98 1578.79 1786.2 1576.9 1698.77 1561.03C1523.9 1529.31 1310.53 1441.75 1100.11 1305.86C889.699 1169.97 722.123 1011.5 621.279 865.164C570.857 791.994 537.132 721.877 523.065 659.149C508.998 596.423 514.594 541.125 542.751 497.527C570.907 453.929 619.009 426.082 681.969 413.101C744.931 400.121 822.713 402.018 910.148 417.88C1085.01 449.602 1298.39 537.159 1508.8 673.05Z" stroke="#2E2E2E"/>
<path d="M1514.29 676.664C1722.3 816.207 1887.09 977.576 1985.36 1125.65C2034.5 1199.69 2067 1270.39 2079.97 1333.35C2092.94 1396.31 2086.38 1451.51 2057.46 1494.61C2028.55 1537.71 1979.97 1564.71 1916.79 1576.59C1853.61 1588.47 1775.87 1585.21 1688.73 1567.83C1514.44 1533.06 1302.63 1441.79 1094.62 1302.25C886.612 1162.71 721.827 1001.34 623.553 853.26C574.415 779.221 541.919 708.526 528.949 645.562C515.979 582.599 522.539 527.407 551.452 484.308C580.366 441.208 628.946 414.204 692.123 402.325C755.302 390.445 833.039 393.7 920.183 411.084C1094.47 445.854 1306.28 537.122 1514.29 676.664Z" stroke="#2E2E2E"/>
<path d="M1519.72 680.374C1725.26 823.526 1887.21 987.747 1982.88 1137.52C2030.72 1212.4 2061.98 1283.65 2073.85 1346.83C2085.71 1410.01 2078.19 1465.08 2048.53 1507.67C2018.87 1550.26 1969.83 1576.41 1906.45 1587.19C1843.07 1597.96 1765.41 1593.35 1678.58 1574.45C1504.93 1536.64 1294.74 1441.69 1089.2 1298.54C883.652 1155.39 721.709 991.167 626.033 841.397C578.195 766.512 546.938 695.261 535.069 632.08C523.199 568.901 530.722 513.832 560.383 471.243C590.044 428.654 639.088 402.503 702.463 391.728C765.84 380.952 843.508 385.563 930.336 404.466C1103.99 442.272 1314.18 537.223 1519.72 680.374Z" stroke="#2E2E2E"/>
<path d="M1525.08 684.179C1728.09 830.896 1887.15 997.918 1980.19 1149.33C2026.72 1225.04 2056.73 1296.83 2067.49 1360.21C2078.26 1423.58 2069.77 1478.51 2039.37 1520.58C2008.97 1562.64 1959.48 1587.93 1895.93 1597.6C1832.37 1607.27 1754.8 1601.3 1668.31 1580.89C1495.34 1540.06 1286.85 1441.45 1083.83 1294.74C880.82 1148.02 721.767 980.997 628.72 829.58C582.196 753.871 552.187 682.086 541.422 618.707C530.658 555.331 539.14 500.401 569.54 458.337C599.94 416.272 649.433 390.981 712.986 381.313C776.541 371.645 854.117 377.611 940.602 398.027C1113.57 438.857 1322.07 537.462 1525.08 684.179Z" stroke="#2E2E2E"/>
<path d="M1530.37 688.075C1730.8 838.312 1886.91 1008.08 1977.3 1161.1C2022.5 1237.61 2051.25 1309.91 2060.9 1373.47C2070.56 1437.02 2061.12 1491.79 2029.99 1533.32C1998.86 1574.85 1948.94 1599.27 1885.22 1607.83C1821.51 1616.39 1744.05 1609.07 1657.93 1587.15C1485.71 1543.3 1278.96 1441.08 1078.54 1290.84C878.118 1140.6 722.004 970.828 631.614 817.811C586.418 741.301 557.667 669.003 548.01 605.446C538.353 541.891 547.792 487.118 578.922 445.59C610.051 404.063 659.978 379.639 723.69 371.082C787.404 362.525 864.865 369.844 950.98 391.766C1123.21 435.609 1329.95 537.837 1530.37 688.075Z" stroke="#2E2E2E"/>
<path d="M1535.6 692.064C1733.37 845.776 1886.5 1018.25 1974.2 1172.82C2018.06 1250.11 2045.54 1322.89 2054.09 1386.61C2062.63 1450.32 2052.24 1504.92 2020.39 1545.9C1988.54 1586.88 1938.2 1610.43 1874.34 1617.87C1810.49 1625.32 1733.17 1616.65 1647.45 1593.23C1476.01 1546.38 1271.08 1440.56 1073.31 1286.85C875.544 1133.14 722.418 960.666 634.712 806.095C590.858 728.808 563.373 656.019 554.826 592.303C546.28 528.589 556.674 473.989 588.524 433.011C620.373 392.033 670.719 368.485 734.57 361.041C798.424 353.597 875.745 362.267 961.465 385.688C1132.9 432.53 1337.83 538.351 1535.6 692.064Z" stroke="#2E2E2E"/>
<path d="M1540.76 696.143C1735.81 853.284 1885.91 1028.4 1970.9 1184.48C2013.4 1262.52 2039.61 1335.78 2047.04 1399.63C2054.47 1463.49 2043.13 1517.9 2010.57 1558.31C1978.01 1598.73 1927.26 1621.39 1863.29 1627.72C1799.32 1634.05 1722.16 1624.03 1636.86 1599.12C1466.27 1549.29 1263.22 1439.91 1068.16 1282.77C873.102 1125.63 723.009 950.512 638.014 794.434C595.516 716.393 569.305 643.136 561.872 579.28C554.439 515.428 565.785 461.017 598.344 420.601C630.904 380.185 681.653 357.519 745.625 351.191C809.599 344.863 886.757 354.88 972.054 379.794C1142.65 429.621 1345.7 539.002 1540.76 696.143Z" stroke="#2E2E2E"/>
<path d="M1545.84 700.312C1738.12 860.833 1885.14 1038.54 1967.39 1196.08C2008.52 1274.85 2033.45 1348.56 2039.77 1412.53C2046.09 1476.5 2033.79 1530.71 2000.53 1570.55C1967.27 1610.39 1916.14 1632.17 1852.07 1637.38C1787.99 1642.59 1711.02 1631.23 1626.17 1604.83C1456.47 1552.03 1255.36 1439.12 1063.08 1278.6C870.791 1118.08 723.777 940.37 641.519 782.832C600.39 704.062 575.461 630.358 569.144 566.383C562.826 502.41 575.12 448.206 608.38 408.365C641.64 368.523 692.776 346.746 756.849 341.535C820.924 336.324 897.895 347.687 982.745 374.086C1152.44 426.882 1353.55 539.791 1545.84 700.312Z" stroke="#2E2E2E"/>
<path d="M1550.85 704.569C1740.3 868.421 1884.19 1048.67 1963.69 1207.62C2003.44 1287.1 2027.07 1361.22 2032.27 1425.3C2037.47 1489.37 2024.24 1543.35 1990.29 1582.61C1956.34 1621.86 1904.83 1642.75 1840.67 1646.84C1776.52 1650.93 1699.76 1638.22 1615.38 1610.35C1446.63 1554.6 1247.52 1438.2 1058.07 1274.35C868.612 1110.49 724.722 930.244 645.226 771.294C605.477 691.818 581.839 617.69 576.639 553.615C571.439 489.541 584.677 435.56 618.627 396.305C652.577 357.05 704.086 336.168 768.24 332.077C832.396 327.985 909.157 340.689 993.533 368.565C1162.28 424.315 1361.39 540.716 1550.85 704.569Z" stroke="#2E2E2E"/>
<path d="M1555.78 708.912C1742.35 876.046 1883.07 1058.78 1959.78 1219.09C1998.13 1299.25 2020.48 1373.78 2024.56 1437.94C2028.64 1502.09 2014.46 1555.83 1979.83 1594.49C1945.2 1633.14 1893.33 1653.12 1829.12 1656.1C1764.9 1659.07 1688.37 1645.02 1604.5 1615.68C1436.75 1556.99 1239.7 1437.14 1053.13 1270C866.566 1102.87 725.843 920.135 649.134 759.822C610.778 679.665 588.437 605.136 584.356 540.979C580.275 476.825 594.453 423.083 629.083 384.426C663.713 345.77 715.579 325.79 779.794 322.819C844.012 319.848 920.54 333.889 1004.42 363.233C1172.17 421.92 1369.22 541.778 1555.78 708.912Z" stroke="#2E2E2E"/>
<path d="M1560.64 713.34C1744.26 883.705 1881.77 1068.87 1955.67 1230.49C1992.62 1311.31 2013.66 1386.22 2016.62 1450.43C2019.58 1514.65 2004.47 1568.14 1969.17 1606.18C1933.87 1644.23 1881.66 1663.3 1817.4 1665.15C1753.15 1667 1676.87 1651.62 1593.52 1620.82C1426.82 1559.22 1231.89 1435.94 1048.27 1265.57C864.654 1095.21 727.142 910.047 653.242 748.42C616.291 667.605 595.254 592.697 592.293 528.479C589.333 464.263 604.446 410.777 639.746 372.731C675.045 334.684 727.252 315.613 791.509 313.763C855.769 311.913 932.04 327.288 1015.39 358.091C1182.09 419.697 1377.02 542.976 1560.64 713.34Z" stroke="#2E2E2E"/>
<path d="M1565.42 717.854C1746.04 891.397 1880.3 1078.93 1951.37 1241.82C1986.9 1323.27 2006.63 1398.53 2008.47 1462.79C2010.31 1527.05 1994.26 1580.26 1958.3 1617.69C1922.35 1655.11 1869.81 1673.27 1805.53 1674C1741.25 1674.73 1665.26 1658.02 1582.46 1625.77C1416.86 1561.26 1224.11 1434.6 1043.49 1261.06C862.875 1087.52 728.616 899.983 657.547 737.091C622.013 655.644 602.287 580.381 600.447 516.121C598.608 451.863 614.652 398.648 650.61 361.224C686.569 323.8 739.1 305.642 803.38 304.914C867.662 304.186 943.653 320.89 1026.45 353.143C1192.06 417.648 1384.8 544.311 1565.42 717.854Z" stroke="#2E2E2E"/>
<path d="M1570.12 722.45C1747.68 899.119 1878.65 1088.97 1946.86 1253.07C1980.97 1335.13 1999.38 1410.73 2000.1 1475.01C2000.82 1539.29 1983.85 1592.21 1947.24 1629.01C1910.63 1665.8 1857.79 1683.03 1793.51 1682.64C1729.23 1682.25 1653.54 1664.22 1571.31 1630.53C1406.86 1563.14 1216.36 1433.13 1038.79 1256.46C861.231 1079.8 730.264 889.948 662.05 725.84C627.942 643.785 609.533 568.189 608.815 503.907C608.097 439.627 625.068 386.7 661.674 349.909C698.28 313.118 751.119 295.881 815.402 296.274C879.688 296.668 955.376 314.695 1037.6 348.389C1202.05 415.775 1392.56 545.781 1570.12 722.45Z" stroke="#2E2E2E"/>
<path d="M1574.74 727.127C1749.19 906.868 1876.82 1098.97 1942.16 1264.24C1974.84 1346.88 1991.92 1422.79 1991.52 1487.07C1991.11 1551.36 1973.22 1603.98 1935.98 1640.13C1898.74 1676.27 1845.6 1692.58 1781.34 1691.07C1717.07 1689.55 1641.71 1670.21 1560.08 1635.08C1396.83 1564.84 1208.63 1431.53 1034.17 1251.79C859.722 1072.05 732.089 879.942 666.749 714.668C634.078 632.031 616.991 556.125 617.395 491.839C617.799 427.557 635.691 374.935 672.933 338.788C710.176 302.641 763.309 286.328 827.575 287.844C891.843 289.359 967.205 308.705 1048.83 343.829C1212.08 414.074 1400.29 547.386 1574.74 727.127Z" stroke="#2E2E2E"/>
<path d="M1579.28 731.884C1750.57 914.642 1874.83 1108.94 1937.27 1275.33C1968.5 1358.53 1984.26 1434.72 1982.73 1498.99C1981.2 1563.25 1962.4 1615.56 1924.53 1651.05C1886.66 1686.54 1833.25 1701.92 1769.02 1699.29C1704.79 1696.65 1629.78 1675.99 1548.78 1639.45C1386.78 1566.36 1200.93 1429.79 1029.64 1247.03C858.348 1064.27 734.087 869.969 671.642 703.581C640.418 620.385 624.658 544.193 626.184 479.924C627.71 415.658 646.518 363.357 684.385 327.865C722.253 292.374 775.662 276.991 839.892 279.628C904.125 282.265 979.137 302.923 1060.14 339.466C1222.14 412.549 1407.99 549.126 1579.28 731.884Z" stroke="#2E2E2E"/>
<path d="M1583.73 736.72C1751.8 922.439 1872.65 1118.88 1932.19 1286.33C1961.95 1370.06 1976.38 1446.52 1973.73 1510.75C1971.09 1574.98 1951.37 1626.94 1912.89 1661.77C1874.41 1696.59 1820.74 1711.04 1756.56 1707.29C1692.39 1703.53 1617.74 1681.56 1537.39 1643.61C1376.7 1567.71 1193.26 1427.91 1025.18 1242.19C857.111 1056.47 736.259 860.033 676.727 692.58C646.96 608.853 632.533 532.397 635.18 468.165C637.827 403.935 657.545 351.97 696.026 317.145C734.507 282.32 788.177 267.871 852.351 271.629C916.528 275.386 991.169 297.35 1071.52 335.301C1232.22 411.201 1415.66 551 1583.73 736.72Z" stroke="#2E2E2E"/>
<path d="M1588.1 741.632C1752.9 930.256 1870.31 1128.78 1926.91 1297.24C1955.21 1381.48 1968.3 1458.17 1964.53 1522.35C1960.77 1586.52 1940.14 1638.14 1901.06 1672.28C1861.98 1706.43 1808.06 1719.94 1743.97 1715.07C1679.86 1710.19 1605.62 1686.93 1525.94 1647.58C1366.59 1568.88 1185.62 1425.91 1020.82 1237.28C856.009 1048.66 738.605 850.136 682.004 681.67C653.703 597.435 640.612 520.739 644.38 456.563C648.148 392.39 668.769 340.776 707.852 306.628C746.936 272.48 800.849 258.97 864.948 263.847C929.049 268.724 1003.3 291.988 1082.97 331.335C1242.32 410.028 1423.29 553.007 1588.1 741.632Z" stroke="#2E2E2E"/>
<path d="M1592.38 746.619C1753.87 938.091 1867.79 1138.63 1921.44 1308.06C1948.27 1392.77 1960.02 1469.69 1955.13 1533.79C1950.25 1597.89 1928.73 1649.13 1889.05 1682.59C1849.38 1716.05 1795.24 1728.62 1731.24 1722.63C1667.23 1716.63 1593.4 1692.07 1514.42 1651.34C1356.47 1569.88 1178.02 1423.76 1016.53 1232.29C855.044 1040.82 741.123 840.281 687.471 670.853C660.644 586.137 648.893 509.224 653.781 445.124C658.668 381.026 680.187 329.78 719.86 296.32C759.534 262.859 813.675 250.292 877.679 256.287C941.685 262.282 1015.51 286.837 1094.49 327.569C1252.44 409.031 1430.89 555.147 1592.38 746.619Z" stroke="#2E2E2E"/>
<path d="M1596.57 751.682C1754.7 945.943 1865.1 1148.44 1915.79 1318.78C1941.13 1403.95 1951.54 1481.06 1945.53 1545.06C1939.53 1609.06 1917.12 1659.93 1876.87 1692.69C1836.62 1725.45 1782.26 1737.07 1718.37 1729.96C1654.48 1722.85 1581.09 1697.01 1502.84 1654.91C1346.33 1570.7 1170.46 1421.49 1012.34 1227.23C854.216 1032.97 743.812 830.473 693.125 660.134C667.781 574.964 657.374 497.857 663.379 433.852C669.385 369.849 691.795 318.986 732.046 286.223C772.297 253.46 826.649 241.84 890.539 248.951C954.431 256.062 1027.82 281.902 1106.07 324.006C1262.58 408.213 1438.45 557.42 1596.57 751.682Z" stroke="#2E2E2E"/>
<path d="M1600.68 756.817C1755.39 953.808 1862.24 1158.2 1909.95 1329.4C1933.8 1415 1942.86 1492.28 1935.74 1556.17C1928.62 1620.05 1905.32 1670.52 1864.51 1702.57C1823.69 1734.63 1769.14 1745.3 1705.39 1737.07C1641.63 1728.85 1568.7 1701.73 1491.2 1658.27C1336.18 1571.34 1162.94 1419.09 1008.23 1222.1C853.525 1025.11 746.671 820.713 698.965 649.516C675.111 563.916 666.052 486.639 673.173 422.749C680.295 358.86 703.589 308.397 744.406 276.341C785.223 244.285 839.77 233.616 903.525 241.84C967.283 250.065 1040.21 277.183 1117.72 320.646C1272.73 407.571 1445.97 559.825 1600.68 756.817Z" stroke="#2E2E2E"/>
<path d="M1604.69 762.021C1755.94 961.683 1859.21 1167.91 1903.92 1339.91C1926.28 1425.92 1933.99 1503.34 1925.75 1567.1C1917.52 1630.85 1893.35 1680.9 1851.98 1712.24C1810.61 1743.58 1755.88 1753.29 1692.28 1743.96C1628.67 1734.62 1556.23 1706.23 1479.5 1661.43C1326.02 1571.81 1155.47 1416.55 1004.22 1216.89C852.972 1017.23 749.702 811.004 704.99 638.999C682.634 552.996 674.925 475.573 683.16 411.817C691.396 348.062 715.567 298.013 756.937 266.674C798.307 235.336 853.032 225.62 916.635 234.956C980.24 244.293 1052.68 272.679 1129.42 317.488C1282.89 407.105 1453.45 562.36 1604.69 762.021Z" stroke="#2E2E2E"/>
<path d="M1608.62 767.296C1756.36 969.566 1856.01 1177.56 1897.72 1350.32C1918.57 1436.7 1924.92 1514.25 1915.58 1577.85C1906.23 1641.45 1881.19 1691.07 1839.28 1721.68C1797.37 1752.3 1742.48 1761.05 1679.05 1750.61C1615.62 1740.17 1543.68 1710.52 1467.74 1664.38C1315.86 1572.1 1148.03 1413.89 1000.3 1211.62C852.556 1009.35 752.901 801.349 711.198 628.59C690.346 542.21 683.989 464.665 693.336 401.061C702.683 337.46 727.724 287.841 769.635 257.229C811.546 226.617 866.432 217.858 929.861 228.302C993.294 238.748 1065.23 268.394 1141.17 314.535C1293.06 406.817 1460.88 565.025 1608.62 767.296Z" stroke="#2E2E2E"/>
<path d="M1612.45 772.638C1756.64 977.456 1852.65 1187.16 1891.33 1360.62C1910.67 1447.35 1915.67 1525 1905.22 1588.43C1894.76 1651.86 1868.86 1701.03 1826.42 1730.91C1783.98 1760.78 1728.95 1768.58 1665.71 1757.03C1602.47 1745.48 1531.06 1714.58 1455.94 1667.12C1305.69 1572.21 1140.65 1411.09 996.464 1206.28C852.278 1001.46 756.268 791.752 717.586 618.292C698.245 531.561 693.243 453.917 703.698 390.486C714.153 327.058 740.057 277.883 782.495 248.007C824.934 218.131 879.964 210.331 943.202 221.881C1006.44 233.432 1077.85 264.329 1152.98 311.789C1303.23 406.707 1468.26 567.82 1612.45 772.638Z" stroke="#2E2E2E"/>
<path d="M1616.19 778.046C1756.78 985.35 1849.11 1196.7 1884.76 1370.81C1902.58 1457.86 1906.23 1535.58 1894.67 1598.82C1883.11 1662.06 1856.35 1710.77 1813.4 1739.9C1770.45 1769.03 1715.29 1775.87 1652.26 1763.22C1589.23 1750.57 1518.37 1718.43 1444.09 1669.67C1295.52 1572.14 1133.32 1408.17 992.727 1200.87C852.137 993.564 759.802 782.215 724.154 608.106C706.329 521.051 702.682 443.331 714.243 380.093C725.804 316.856 752.562 268.141 795.515 239.01C838.469 209.88 893.627 203.041 956.654 215.693C1019.68 228.346 1090.54 260.485 1164.83 309.248C1313.4 406.775 1475.6 570.743 1616.19 778.046Z" stroke="#2E2E2E"/>
<path d="M1619.83 783.518C1756.78 993.244 1845.41 1206.17 1878.02 1380.88C1894.32 1468.23 1896.61 1546 1883.95 1609.03C1871.28 1672.05 1843.68 1720.29 1800.22 1748.67C1756.77 1777.05 1701.5 1782.92 1638.7 1769.17C1575.9 1755.42 1505.62 1722.05 1432.2 1672C1285.35 1571.89 1126.04 1405.12 989.086 1195.39C852.135 985.668 763.502 772.74 730.898 598.036C714.596 510.683 712.306 432.911 724.969 369.884C737.631 306.859 765.235 258.618 808.69 230.242C852.146 201.865 907.415 195.99 970.211 209.74C1033.01 223.491 1103.3 256.861 1176.72 306.914C1323.57 407.018 1482.88 573.793 1619.83 783.518Z" stroke="#2E2E2E"/>
<path d="M1623.37 789.054C1756.64 1001.14 1841.55 1215.58 1871.1 1390.83C1885.87 1478.45 1886.81 1556.25 1873.04 1619.05C1859.28 1681.84 1830.84 1729.59 1786.9 1757.21C1742.95 1784.82 1687.59 1789.73 1625.04 1774.89C1562.5 1760.04 1492.8 1725.45 1420.26 1674.12C1275.19 1571.47 1118.81 1401.94 985.539 1189.86C852.27 977.775 767.366 763.333 737.816 588.086C723.041 500.461 722.109 422.662 735.87 359.865C749.63 297.071 778.072 249.319 822.016 221.705C865.96 194.092 921.323 189.182 983.87 204.026C1046.42 218.871 1116.11 253.463 1188.65 304.789C1333.73 407.441 1490.11 576.97 1623.37 789.054Z" stroke="#2E2E2E"/>
<path d="M1626.82 794.65C1756.37 1009.03 1837.52 1224.92 1864.01 1400.65C1877.25 1488.52 1876.82 1566.33 1861.97 1628.87C1847.12 1691.42 1817.85 1738.67 1773.43 1765.51C1729.01 1792.35 1673.57 1796.29 1611.29 1780.36C1549.01 1764.43 1479.93 1728.62 1408.3 1676.04C1265.03 1570.87 1111.64 1398.64 982.09 1184.26C852.542 969.885 771.394 753.993 744.907 578.257C731.664 490.388 732.089 412.584 746.944 350.037C761.798 287.493 791.069 240.245 835.488 213.402C879.907 186.56 935.348 182.617 997.626 198.55C1059.91 214.484 1128.99 250.287 1200.62 302.872C1343.88 408.04 1497.28 580.273 1626.82 794.65Z" stroke="#2E2E2E"/>
<path d="M1630.17 800.306C1755.96 1016.91 1833.33 1234.19 1856.75 1410.36C1868.45 1498.44 1866.67 1576.23 1850.73 1638.51C1834.78 1700.78 1804.69 1747.51 1759.81 1773.58C1714.93 1799.64 1659.43 1802.61 1597.44 1785.6C1535.45 1768.58 1467 1731.57 1396.3 1677.75C1254.89 1570.1 1104.53 1395.21 978.74 1178.61C852.953 962.001 775.585 744.726 752.169 568.554C740.461 480.468 742.244 402.683 758.189 340.405C774.132 278.129 804.223 231.399 849.104 205.336C893.985 179.272 949.486 176.298 1011.48 193.316C1073.47 210.334 1141.91 247.337 1212.62 301.164C1354.02 408.817 1504.39 583.7 1630.17 800.306Z" stroke="#2E2E2E"/>
<path d="M1633.43 806.02C1755.41 1024.79 1828.98 1243.38 1849.32 1419.93C1859.48 1508.21 1856.34 1585.95 1839.31 1647.94C1822.29 1709.93 1791.38 1756.13 1746.06 1781.4C1700.73 1806.68 1645.18 1808.69 1583.5 1790.59C1521.81 1772.49 1454.03 1734.3 1384.27 1679.25C1244.77 1569.14 1097.48 1391.66 975.488 1172.89C853.5 954.126 779.936 735.534 759.598 558.981C749.429 470.703 752.57 392.961 769.599 330.971C786.627 268.983 817.528 222.785 862.857 197.509C908.186 172.233 963.731 170.228 1025.41 188.325C1087.1 206.423 1154.89 244.615 1224.64 299.667C1364.15 409.771 1511.44 587.252 1633.43 806.02Z" stroke="#2E2E2E"/>
<path d="M1636.58 811.789C1754.73 1032.65 1824.47 1252.5 1841.72 1429.38C1850.35 1517.82 1845.85 1595.49 1827.74 1657.18C1809.63 1718.86 1777.93 1764.51 1732.17 1788.99C1686.4 1813.47 1630.83 1814.51 1569.47 1795.34C1508.11 1776.17 1441 1736.8 1372.22 1680.53C1234.66 1568.01 1090.49 1387.99 972.336 1167.12C854.185 946.261 784.448 726.418 767.194 549.537C758.567 461.096 763.064 383.42 781.172 321.737C799.279 260.056 830.983 214.404 876.746 189.923C922.509 165.442 978.08 164.406 1039.44 183.577C1100.8 202.749 1167.91 242.118 1236.69 298.379C1374.25 410.901 1518.43 590.926 1636.58 811.789Z" stroke="#2E2E2E"/>
<path d="M1639.63 817.613C1753.91 1040.5 1819.8 1261.53 1833.96 1438.69C1841.04 1527.26 1835.19 1604.85 1816.01 1666.21C1796.83 1727.56 1764.33 1772.66 1718.15 1796.33C1671.96 1820.01 1616.38 1820.08 1555.37 1799.84C1494.35 1779.6 1427.94 1739.07 1360.15 1681.61C1224.57 1566.71 1083.56 1384.19 969.286 1161.3C855.008 938.409 789.117 717.383 774.954 540.228C767.871 451.649 773.724 374.064 792.905 312.706C812.086 251.35 844.581 206.259 890.765 182.58C936.948 158.901 992.529 158.836 1053.54 179.075C1114.56 199.314 1180.97 239.848 1248.76 297.302C1384.34 412.208 1525.35 594.721 1639.63 817.613Z" stroke="#2E2E2E"/>
<path d="M1642.58 823.488C1752.95 1048.34 1814.97 1270.48 1826.04 1447.86C1831.57 1536.55 1824.37 1614.02 1804.12 1675.03C1783.87 1736.04 1750.59 1780.56 1704 1803.43C1657.41 1826.3 1601.84 1825.39 1541.19 1804.09C1480.53 1782.79 1414.84 1741.11 1348.06 1682.48C1214.51 1565.22 1076.71 1380.28 966.339 1155.42C855.968 930.573 793.945 708.43 782.875 531.055C777.34 442.366 784.545 364.895 804.795 303.881C825.043 242.869 858.321 198.351 904.91 175.482C951.5 152.613 1007.07 153.518 1067.73 174.818C1128.38 196.12 1194.08 237.807 1260.85 296.435C1394.4 413.689 1532.2 598.635 1642.58 823.488Z" stroke="#2E2E2E"/>
<path d="M1645.42 829.416C1751.85 1056.16 1809.99 1279.35 1817.96 1456.89C1821.95 1545.66 1813.39 1623 1792.08 1683.65C1770.77 1744.3 1736.72 1788.23 1689.74 1810.28C1642.75 1832.33 1587.21 1830.46 1526.93 1808.1C1466.66 1785.75 1401.7 1742.92 1335.96 1683.13C1204.47 1563.57 1069.92 1376.24 963.493 1149.5C857.063 922.756 798.927 699.565 790.954 522.023C786.967 433.251 795.524 355.917 816.835 295.266C838.145 234.617 872.195 190.687 919.176 168.635C966.158 146.582 1021.71 148.457 1081.98 170.812C1142.25 193.169 1207.21 235.996 1272.95 295.781C1404.44 415.348 1538.99 602.671 1645.42 829.416Z" stroke="#2E2E2E"/>
<path d="M1648.16 835.39C1750.62 1063.96 1804.85 1288.13 1809.72 1465.78C1812.16 1554.61 1802.26 1631.78 1779.89 1692.05C1757.52 1752.32 1722.71 1795.65 1675.35 1816.88C1627.99 1838.11 1572.49 1835.27 1512.61 1811.86C1452.74 1788.46 1388.54 1744.5 1323.85 1683.58C1194.47 1561.73 1063.21 1372.09 960.752 1143.52C858.295 914.957 804.063 690.785 799.19 513.132C796.753 424.304 806.658 347.131 829.025 286.861C851.39 226.593 886.201 183.264 933.56 162.035C980.92 140.806 1036.43 143.649 1096.3 167.054C1156.17 190.459 1220.37 234.413 1285.06 295.336C1414.44 417.18 1545.7 606.823 1648.16 835.39Z" stroke="#2E2E2E"/>
<path d="M1650.8 841.412C1749.25 1071.73 1799.56 1296.82 1801.33 1474.53C1802.22 1563.39 1790.97 1640.37 1767.55 1700.24C1744.14 1760.11 1708.58 1802.83 1660.86 1823.23C1613.13 1843.63 1557.68 1839.81 1498.23 1815.37C1438.77 1790.92 1375.35 1745.85 1311.73 1683.81C1184.5 1559.73 1056.57 1367.82 958.115 1137.5C859.664 907.182 809.352 682.098 807.58 504.386C806.694 415.529 817.944 338.541 841.359 278.671C864.773 218.802 900.335 176.087 948.057 155.688C995.78 135.289 1051.23 139.1 1110.68 163.546C1170.14 187.993 1233.56 233.061 1297.18 295.103C1424.41 419.186 1552.35 611.091 1650.8 841.412Z" stroke="#2E2E2E"/>
<path d="M1653.33 847.479C1747.75 1079.48 1794.12 1305.41 1792.79 1483.13C1792.13 1571.99 1779.53 1648.76 1755.08 1708.22C1730.62 1767.67 1694.32 1809.76 1646.25 1829.32C1598.18 1848.88 1542.8 1844.1 1483.78 1818.62C1424.76 1793.14 1362.14 1746.98 1299.61 1683.83C1174.57 1557.55 1050 1363.44 955.584 1131.44C861.167 899.432 814.791 673.504 816.121 495.788C816.786 406.929 829.378 330.15 853.835 270.697C878.29 211.246 914.592 169.158 962.663 149.595C1010.73 130.032 1066.11 134.811 1125.13 160.29C1184.15 185.771 1246.78 231.939 1309.3 295.082C1434.35 421.367 1558.91 615.475 1653.33 847.479Z" stroke="#2E2E2E"/>
<path d="M1655.75 853.589C1746.11 1087.21 1788.53 1313.91 1784.1 1491.57C1781.89 1580.41 1767.96 1656.96 1742.47 1715.97C1716.98 1774.99 1679.95 1816.44 1631.54 1835.16C1583.13 1853.88 1527.85 1848.13 1469.29 1821.63C1410.72 1795.12 1348.91 1747.87 1287.49 1683.64C1164.67 1555.19 1043.51 1358.94 953.16 1125.32C862.806 891.709 820.38 665.006 824.811 487.341C827.027 398.507 840.957 321.958 866.447 262.941C891.937 203.927 928.967 162.479 977.373 143.757C1025.78 125.036 1081.06 130.781 1139.63 157.286C1198.19 183.793 1260.01 231.047 1321.42 295.272C1444.24 423.72 1565.4 619.973 1655.75 853.589Z" stroke="#2E2E2E"/>
<path d="M1658.07 859.741C1744.33 1094.9 1782.8 1322.31 1775.27 1499.87C1771.5 1588.65 1756.24 1664.94 1729.72 1723.51C1703.2 1782.07 1665.46 1822.86 1616.73 1840.74C1568.01 1858.61 1512.83 1851.9 1454.74 1824.38C1396.64 1796.85 1335.66 1748.53 1275.38 1683.24C1154.82 1552.67 1037.1 1354.33 950.842 1119.17C864.579 884.016 826.116 656.607 833.648 479.046C837.413 390.265 852.677 313.971 879.193 255.408C905.709 196.847 943.457 156.052 992.182 138.178C1040.91 120.304 1096.08 127.013 1154.17 154.537C1212.27 182.061 1273.25 230.387 1333.53 295.674C1454.09 426.246 1571.81 624.583 1658.07 859.741Z" stroke="#2E2E2E"/>
<path d="M1660.28 865.932C1742.43 1102.56 1776.91 1330.6 1766.29 1508.01C1760.97 1596.71 1744.38 1672.73 1716.84 1730.82C1689.31 1788.91 1650.86 1829.04 1601.83 1846.06C1552.8 1863.08 1497.75 1855.41 1440.14 1826.87C1382.54 1798.34 1322.41 1748.96 1263.28 1682.63C1145.01 1549.97 1030.78 1349.61 948.632 1112.98C866.486 876.355 831.998 648.31 842.627 470.907C847.942 382.205 864.535 306.189 892.069 248.098C919.602 190.009 958.057 149.879 1007.09 132.858C1056.12 115.837 1111.16 123.508 1168.77 152.041C1226.38 180.576 1286.5 229.958 1345.63 296.287C1463.9 428.943 1578.14 629.305 1660.28 865.932Z" stroke="#2E2E2E"/>
<path d="M1662.38 872.161C1740.39 1110.19 1770.89 1338.8 1757.17 1515.99C1750.3 1604.58 1732.39 1680.3 1703.84 1737.9C1675.3 1795.5 1636.15 1834.95 1586.83 1851.12C1537.51 1867.28 1482.61 1858.65 1425.51 1829.11C1368.41 1799.58 1309.15 1749.15 1251.19 1681.8C1135.25 1547.1 1024.53 1344.78 946.53 1106.75C868.527 868.729 838.024 640.116 851.748 462.927C858.61 374.33 876.527 298.616 905.071 241.014C933.613 183.414 972.763 143.961 1022.08 127.799C1071.4 111.636 1126.31 120.266 1183.4 149.801C1240.5 179.336 1299.76 229.761 1357.73 297.112C1473.66 431.812 1584.38 634.136 1662.38 872.161Z" stroke="#2E2E2E"/>
<path d="M1664.38 878.425C1738.21 1117.77 1764.72 1346.88 1747.91 1523.81C1739.5 1612.27 1720.27 1687.66 1690.72 1744.76C1661.18 1801.85 1621.34 1840.61 1571.75 1855.91C1522.16 1871.21 1467.41 1861.62 1410.84 1831.1C1354.26 1800.57 1295.9 1749.12 1239.11 1680.77C1125.55 1544.06 1018.38 1339.84 944.538 1100.49C870.701 861.139 844.192 632.028 861.006 455.105C869.413 366.642 888.649 291.252 918.194 234.157C947.738 177.064 987.569 138.3 1037.16 123.001C1086.76 107.702 1141.5 117.289 1198.08 147.815C1254.65 178.343 1313.02 229.794 1369.8 298.146C1483.37 434.849 1590.54 639.075 1664.38 878.425Z" stroke="#2E2E2E"/>
<path d="M1666.26 884.724C1735.91 1125.33 1758.41 1354.86 1738.51 1531.47C1728.56 1619.77 1708.02 1694.81 1677.48 1751.38C1646.94 1807.95 1606.44 1846.01 1556.59 1860.45C1506.74 1874.88 1452.16 1864.34 1396.13 1832.83C1340.1 1801.32 1282.64 1748.86 1227.06 1679.52C1115.9 1540.86 1012.3 1334.79 942.655 1094.19C873.006 853.589 850.5 624.051 870.399 447.448C880.349 359.145 900.897 284.102 931.434 227.532C961.97 170.963 1002.47 132.9 1052.32 118.469C1102.18 104.037 1156.75 114.578 1212.78 146.088C1268.82 177.598 1326.27 230.06 1381.86 299.393C1493.02 438.056 1596.61 644.122 1666.26 884.724Z" stroke="#2E2E2E"/>
<path d="M1668.03 891.053C1733.47 1132.83 1751.97 1362.73 1728.99 1538.96C1717.5 1627.07 1695.64 1701.75 1664.13 1757.78C1632.61 1813.8 1591.45 1851.15 1541.35 1864.71C1491.25 1878.27 1436.87 1866.78 1381.4 1834.3C1325.92 1801.81 1269.39 1748.36 1215.03 1678.07C1106.3 1537.48 1006.32 1329.64 940.882 1087.86C875.443 846.079 856.946 616.183 879.925 439.954C891.414 351.839 913.269 277.166 944.788 221.137C976.307 165.11 1017.47 127.76 1067.56 114.201C1117.66 100.641 1172.04 112.133 1227.51 144.615C1282.99 177.099 1339.52 230.555 1393.89 300.848C1502.61 441.43 1602.59 649.273 1668.03 891.053Z" stroke="#2E2E2E"/>
<path d="M1669.69 897.414C1730.9 1140.3 1745.38 1370.48 1719.33 1546.29C1706.31 1634.19 1683.15 1708.47 1650.66 1763.94C1618.17 1819.41 1576.36 1856.03 1526.04 1868.71C1475.71 1881.4 1421.54 1868.96 1366.64 1835.51C1311.74 1802.07 1256.15 1747.63 1203.02 1676.4C1096.77 1533.94 1000.43 1324.39 939.22 1081.5C878.01 838.614 863.529 608.431 889.579 432.63C902.605 344.728 925.759 270.448 958.252 214.977C990.743 159.509 1032.55 122.883 1082.88 110.2C1133.2 97.5174 1187.37 109.956 1242.27 143.402C1297.17 176.849 1352.76 231.284 1405.89 302.514C1512.15 444.973 1608.48 654.528 1669.69 897.414Z" stroke="#2E2E2E"/>
<path d="M1671.24 903.803C1728.21 1147.72 1738.67 1378.12 1709.55 1553.44C1695 1641.1 1670.55 1714.97 1637.09 1769.86C1603.64 1824.75 1561.2 1860.65 1510.66 1872.45C1460.12 1884.25 1406.17 1870.87 1351.87 1836.47C1297.56 1802.07 1242.92 1746.67 1191.05 1674.53C1087.3 1530.23 994.631 1319.03 937.669 1075.11C880.708 831.195 870.246 600.793 899.36 425.474C913.918 337.813 938.366 263.948 971.821 209.053C1005.28 154.16 1047.71 118.269 1098.25 106.467C1148.79 94.6645 1202.74 108.047 1257.05 142.446C1311.35 176.845 1365.99 232.242 1417.87 304.389C1521.62 448.681 1614.28 659.885 1671.24 903.803Z" stroke="#2E2E2E"/>
<path d="M1672.68 910.217C1725.38 1155.09 1731.82 1385.64 1699.65 1560.42C1683.56 1647.82 1657.83 1721.25 1623.42 1775.55C1589.01 1829.85 1545.96 1864.99 1495.22 1875.91C1444.48 1886.83 1390.78 1872.51 1337.08 1837.17C1283.38 1801.83 1229.72 1745.48 1179.11 1672.44C1077.89 1526.36 988.926 1313.57 936.23 1068.7C883.535 823.823 877.095 593.275 909.265 418.49C925.35 331.096 951.083 257.67 985.492 203.367C1019.9 149.066 1062.96 113.921 1113.7 103.003C1164.43 92.084 1218.14 106.406 1271.84 141.747C1325.54 177.089 1379.19 233.431 1429.8 306.473C1531.02 452.553 1619.99 665.343 1672.68 910.217Z" stroke="#2E2E2E"/>
<path d="M1674.01 916.656C1722.42 1162.41 1724.84 1393.04 1689.62 1567.24C1672.02 1654.33 1645 1727.3 1609.65 1781C1574.3 1834.69 1530.64 1869.08 1479.72 1879.11C1428.8 1889.14 1375.35 1873.88 1322.28 1837.61C1269.2 1801.33 1216.54 1744.06 1167.21 1670.15C1068.55 1522.33 983.317 1308.02 934.903 1062.26C886.489 816.503 884.075 585.877 919.29 411.68C936.898 324.58 963.909 251.614 999.26 197.92C1034.61 144.228 1078.27 109.84 1129.2 99.8086C1180.12 89.7772 1233.56 105.034 1286.64 141.307C1339.71 177.581 1392.38 234.851 1441.7 308.764C1540.36 456.589 1625.6 670.899 1674.01 916.656Z" stroke="#2E2E2E"/>
<path d="M1675.22 923.116C1719.34 1169.68 1717.73 1400.31 1679.48 1573.87C1660.36 1660.65 1632.08 1733.13 1595.79 1786.2C1559.51 1839.27 1515.25 1872.89 1464.16 1882.03C1413.08 1891.17 1359.9 1874.98 1307.47 1837.79C1255.04 1800.59 1203.38 1742.41 1155.35 1667.65C1059.29 1518.13 977.807 1302.36 933.689 1055.8C889.572 809.234 891.182 578.601 929.432 405.046C948.558 318.267 976.838 245.783 1013.12 192.714C1049.4 139.647 1093.66 106.026 1144.75 96.8851C1195.84 87.7439 1249.01 103.931 1301.44 141.125C1353.87 178.32 1405.53 236.5 1453.56 311.263C1549.62 460.787 1631.11 676.552 1675.22 923.116Z" stroke="#2E2E2E"/>
<path d="M1676.33 929.597C1716.13 1176.89 1710.5 1407.46 1669.22 1580.33C1648.59 1666.76 1619.05 1738.74 1581.84 1791.16C1544.64 1843.59 1499.8 1876.43 1448.56 1884.68C1397.32 1892.93 1344.44 1875.82 1292.67 1837.71C1240.89 1799.61 1190.25 1740.54 1143.54 1664.95C1050.1 1513.77 972.396 1296.61 932.588 1049.32C892.78 802.021 898.415 571.451 939.689 398.589C960.326 312.157 989.866 240.178 1027.07 187.751C1064.27 135.325 1109.11 102.482 1160.35 94.2337C1211.59 85.9854 1264.47 103.098 1316.25 141.201C1368.02 179.306 1418.66 238.379 1465.38 313.969C1558.81 465.146 1636.52 682.3 1676.33 929.597Z" stroke="#2E2E2E"/>
<path d="M1677.31 936.096C1712.8 1184.05 1703.14 1414.49 1658.86 1586.6C1636.71 1672.66 1605.92 1744.11 1567.81 1795.88C1529.7 1847.65 1484.29 1879.71 1432.92 1887.06C1381.54 1894.41 1328.97 1876.38 1277.86 1837.38C1226.76 1798.38 1177.16 1738.43 1131.77 1662.03C1040.99 1509.25 967.086 1290.77 931.6 1042.82C896.114 794.864 905.773 564.428 950.056 392.313C972.199 306.255 1002.99 234.802 1041.1 183.031C1079.22 131.263 1124.62 99.2075 1176 91.8548C1227.37 84.5021 1279.95 102.535 1331.05 141.536C1382.15 180.538 1431.75 240.486 1477.14 316.88C1567.92 469.665 1641.83 688.142 1677.31 936.096Z" stroke="#2E2E2E"/>
<path d="M1678.19 942.611C1709.34 1191.15 1695.66 1421.38 1648.38 1592.69C1624.74 1678.35 1592.71 1749.26 1553.7 1800.36C1514.69 1851.45 1468.73 1882.71 1417.23 1889.16C1365.73 1895.62 1313.48 1876.67 1263.07 1836.78C1212.66 1796.9 1164.11 1736.09 1120.06 1658.92C1031.96 1504.57 961.878 1284.84 930.725 1036.3C899.572 787.767 913.251 557.535 960.532 386.219C984.173 300.56 1016.21 229.655 1055.22 178.558C1094.23 127.463 1140.18 96.2045 1191.68 89.7496C1243.18 83.2946 1295.43 102.243 1345.84 142.129C1396.26 182.017 1444.8 242.822 1488.85 319.996C1576.95 474.342 1647.03 694.076 1678.19 942.611Z" stroke="#2E2E2E"/>
<path d="M1678.95 949.141C1705.76 1198.18 1688.06 1428.14 1637.8 1598.61C1612.67 1683.84 1579.4 1754.17 1539.51 1804.58C1499.61 1854.99 1453.11 1885.44 1401.51 1891C1349.91 1896.55 1298 1876.69 1248.29 1835.93C1198.58 1795.17 1151.1 1733.53 1108.4 1655.6C1023.01 1499.74 956.775 1278.81 929.965 1029.77C903.154 780.732 920.849 550.773 971.112 380.309C996.244 295.075 1029.51 224.74 1069.41 174.332C1109.3 123.925 1155.8 93.4737 1207.4 87.9185C1259 82.3633 1310.91 102.22 1360.62 142.981C1410.34 183.743 1457.81 245.385 1500.51 323.316C1585.9 479.176 1652.14 700.1 1678.95 949.141Z" stroke="#2E2E2E"/>
<path d="M1679.59 955.683C1702.06 1205.15 1680.35 1434.77 1627.12 1604.33C1600.5 1689.11 1566.01 1758.86 1525.24 1808.56C1484.47 1858.26 1437.45 1887.9 1385.76 1892.55C1334.07 1897.21 1282.51 1876.45 1233.52 1834.82C1184.53 1793.2 1138.14 1730.74 1096.81 1652.08C1014.15 1494.75 951.778 1272.7 929.318 1023.23C906.858 773.761 928.563 544.146 981.794 374.584C1008.41 289.803 1042.9 220.059 1083.67 170.354C1124.44 120.652 1171.46 91.0164 1223.15 86.3626C1274.84 81.7088 1326.4 102.469 1375.39 144.091C1424.38 185.714 1470.77 248.175 1512.1 326.84C1594.77 484.167 1657.13 706.212 1679.59 955.683Z" stroke="#2E2E2E"/>
<path d="M1680.13 962.234C1698.23 1212.06 1672.52 1441.26 1616.34 1609.87C1588.25 1694.17 1552.55 1763.3 1510.91 1812.29C1469.28 1861.27 1421.75 1890.08 1369.99 1893.83C1318.23 1897.58 1267.04 1875.93 1218.78 1833.46C1170.52 1790.98 1125.23 1727.72 1085.28 1648.35C1005.37 1489.6 946.889 1266.5 928.786 1016.68C910.683 766.853 936.393 537.652 992.575 369.045C1020.67 284.741 1056.37 215.61 1098 166.625C1139.63 117.641 1187.16 88.8308 1238.92 85.0799C1290.69 81.3289 1341.88 102.986 1390.13 145.456C1438.39 187.928 1483.69 251.19 1523.64 330.563C1603.54 489.309 1662.02 712.409 1680.13 962.234Z" stroke="#2E2E2E"/>
<path d="M1680.55 968.795C1694.29 1218.9 1664.58 1447.62 1605.46 1615.22C1575.91 1699.02 1539 1767.51 1496.52 1815.77C1454.04 1864.02 1406.02 1891.99 1354.2 1894.84C1302.38 1897.69 1251.57 1875.14 1204.07 1831.83C1156.56 1788.53 1112.37 1724.48 1073.81 1644.42C996.69 1484.31 942.108 1260.22 928.368 1010.12C914.628 760.015 944.334 531.297 1003.45 363.697C1033.01 279.896 1069.91 211.398 1112.39 163.147C1154.87 114.897 1202.9 86.9208 1254.72 84.0739C1306.54 81.2269 1357.34 103.774 1404.85 147.08C1452.36 190.387 1496.54 254.43 1535.1 334.489C1612.22 494.605 1666.81 718.692 1680.55 968.795Z" stroke="#2E2E2E"/>
<path d="M1680.85 975.363C1690.22 1225.67 1656.53 1453.83 1594.5 1620.37C1563.48 1703.65 1525.39 1771.49 1482.07 1818.99C1438.76 1866.49 1390.25 1893.63 1338.39 1895.57C1286.52 1897.51 1236.12 1874.08 1189.38 1829.95C1142.63 1785.82 1099.57 1721.02 1062.41 1640.3C988.1 1478.86 937.438 1253.86 928.065 1003.55C918.692 753.247 952.384 525.083 1014.42 358.54C1045.43 275.267 1083.53 207.424 1126.84 159.922C1170.15 112.421 1218.66 85.2868 1270.53 83.3447C1322.39 81.4025 1372.79 104.832 1419.53 148.961C1466.28 193.091 1509.34 257.895 1546.5 338.615C1620.81 500.052 1671.48 725.058 1680.85 975.363Z" stroke="#2E2E2E"/>
<path d="M1681.04 981.933C1686.04 1232.36 1648.37 1459.9 1583.44 1625.34C1550.98 1708.06 1511.71 1775.23 1467.57 1821.97C1423.43 1868.7 1374.46 1894.99 1322.57 1896.02C1270.68 1897.06 1220.7 1872.75 1174.73 1827.82C1128.76 1782.88 1086.84 1717.33 1051.09 1635.98C979.607 1473.27 932.879 1247.41 927.876 996.98C922.873 746.55 960.543 519.008 1025.47 353.573C1057.94 270.855 1097.21 203.687 1141.35 156.947C1185.48 110.209 1234.46 83.9264 1286.34 82.8897C1338.23 81.853 1388.22 106.159 1434.19 151.097C1480.16 196.036 1522.08 261.582 1557.82 342.938C1629.31 505.647 1676.03 731.503 1681.04 981.933Z" stroke="#2E2E2E"/>
<path d="M1681.11 988.506C1681.74 1238.99 1640.11 1465.84 1572.3 1630.11C1538.4 1712.25 1497.96 1778.72 1453.01 1824.69C1408.07 1870.65 1358.64 1896.07 1306.74 1896.2C1254.84 1896.33 1205.29 1871.16 1160.12 1825.42C1114.94 1779.69 1074.17 1713.42 1039.85 1631.46C971.213 1467.52 928.434 1240.89 927.802 990.407C927.17 739.927 968.805 513.078 1036.61 348.801C1070.52 266.662 1110.95 200.19 1155.9 154.227C1200.85 108.267 1250.27 82.8426 1302.17 82.7117C1354.07 82.5807 1403.62 107.755 1448.8 153.489C1493.98 199.223 1534.75 265.49 1569.07 347.458C1637.7 511.39 1680.48 738.027 1681.11 988.506Z" stroke="#2E2E2E"/>
<path d="M1681.07 995.08C1677.33 1245.53 1631.74 1471.62 1561.08 1634.69C1525.75 1716.22 1484.16 1781.98 1438.41 1827.15C1392.67 1872.32 1342.81 1896.88 1290.92 1896.1C1239.02 1895.33 1189.92 1869.29 1145.55 1822.78C1101.17 1776.26 1061.57 1709.29 1028.68 1626.74C962.92 1461.63 924.103 1234.29 927.843 983.833C931.582 733.381 977.17 507.293 1047.83 344.225C1083.17 262.689 1124.76 196.933 1170.5 151.762C1216.24 106.593 1266.1 82.0355 1317.99 82.8103C1369.89 83.5852 1418.99 109.621 1463.37 156.135C1507.74 202.652 1547.35 269.62 1580.23 352.174C1645.99 517.28 1684.81 744.628 1681.07 995.08Z" stroke="#2E2E2E"/>
<path d="M1680.92 1001.65C1672.81 1252 1623.28 1477.26 1549.78 1639.07C1513.03 1719.98 1470.3 1785 1423.77 1829.36C1377.25 1873.73 1326.97 1897.41 1275.1 1895.73C1223.23 1894.05 1174.58 1867.16 1131.03 1819.88C1087.47 1772.59 1049.04 1704.94 1017.6 1621.83C954.732 1455.6 919.888 1227.61 927.998 977.261C936.108 726.912 985.635 501.654 1059.13 339.844C1095.88 258.938 1138.62 193.917 1185.14 149.552C1231.66 105.188 1281.94 81.504 1333.82 83.1844C1385.69 84.8648 1434.33 111.753 1477.88 159.035C1521.44 206.319 1559.87 273.969 1591.31 357.084C1654.18 523.312 1689.03 751.303 1680.92 1001.65Z" stroke="#2E2E2E"/>
<path d="M1680.64 1008.22C1668.17 1258.39 1614.72 1482.75 1538.4 1643.25C1500.25 1723.51 1456.39 1787.77 1409.1 1831.32C1361.81 1874.86 1311.12 1897.67 1259.29 1895.08C1207.45 1892.49 1159.28 1864.76 1116.56 1816.73C1073.84 1768.69 1036.59 1700.38 1006.61 1616.73C946.649 1449.43 915.79 1220.86 928.268 970.695C940.746 720.526 994.196 496.166 1070.51 335.663C1108.66 255.411 1152.52 191.146 1199.82 147.599C1247.1 104.054 1297.79 81.251 1349.63 83.8365C1401.46 86.422 1449.63 114.155 1492.35 162.19C1535.07 210.227 1572.32 278.537 1602.3 362.188C1662.26 529.488 1693.12 758.053 1680.64 1008.22Z" stroke="#2E2E2E"/>
<path d="M1680.26 1014.78C1663.42 1264.7 1606.06 1488.09 1526.96 1647.24C1487.41 1726.81 1442.43 1790.3 1394.39 1833.01C1346.35 1875.73 1295.27 1897.64 1243.49 1894.15C1191.71 1890.66 1144.03 1862.09 1102.15 1813.32C1060.28 1764.55 1024.23 1695.6 995.709 1611.43C938.677 1443.11 911.811 1214.04 928.653 964.131C945.495 714.218 1002.85 490.825 1081.95 331.679C1121.51 252.104 1166.48 188.615 1214.52 145.9C1262.57 103.187 1313.64 81.2719 1365.43 84.7616C1417.21 88.2513 1464.88 116.821 1506.76 165.594C1548.64 214.369 1584.69 283.319 1613.2 367.481C1670.24 535.802 1697.1 764.87 1680.26 1014.78Z" stroke="#2E2E2E"/>
<path d="M1679.76 1021.34C1658.56 1270.92 1597.31 1493.28 1515.45 1651.02C1474.51 1729.89 1428.43 1792.59 1379.65 1834.46C1330.87 1876.32 1279.42 1897.34 1227.71 1892.95C1175.99 1888.56 1128.82 1859.16 1087.81 1809.66C1046.78 1760.17 1011.94 1690.6 984.9 1605.95C930.815 1436.66 907.951 1207.16 929.152 957.577C950.353 707.996 1011.6 485.638 1093.47 327.896C1134.4 249.024 1180.48 186.329 1229.26 144.459C1278.04 102.591 1329.49 81.5712 1381.21 85.9641C1432.92 90.357 1480.09 119.755 1521.11 169.251C1562.13 218.75 1596.97 288.318 1624.01 372.964C1678.1 542.255 1700.96 771.758 1679.76 1021.34Z" stroke="#2E2E2E"/>
<path d="M1679.15 1027.88C1653.59 1277.06 1588.47 1498.31 1503.87 1654.6C1461.56 1732.75 1414.4 1794.63 1364.89 1835.64C1315.39 1876.65 1263.58 1896.77 1211.95 1891.47C1160.32 1886.18 1113.67 1855.96 1073.52 1805.76C1033.37 1755.55 999.752 1685.39 974.19 1600.28C923.067 1430.07 904.212 1200.2 929.766 951.031C955.32 701.858 1020.44 480.603 1105.05 324.314C1147.35 246.168 1194.51 184.287 1244.02 143.275C1293.52 102.265 1345.33 82.1458 1396.96 87.4405C1448.59 92.7353 1495.24 122.952 1535.39 173.156C1575.54 223.363 1609.16 293.529 1634.72 378.635C1685.85 548.843 1704.7 778.71 1679.15 1027.88Z" stroke="#2E2E2E"/>
<path d="M1678.42 1034.42C1648.52 1283.11 1579.55 1503.19 1492.23 1657.98C1448.57 1735.38 1400.33 1796.42 1350.12 1836.57C1299.91 1876.71 1247.75 1895.92 1196.22 1889.72C1144.69 1883.53 1098.58 1852.5 1059.31 1801.6C1020.04 1750.7 987.652 1679.96 963.58 1594.42C915.435 1423.35 900.595 1193.19 930.493 944.498C960.392 695.809 1029.36 475.724 1116.68 320.936C1160.35 243.54 1208.58 182.492 1258.8 142.35C1309.01 102.209 1361.16 82.998 1412.69 89.193C1464.22 95.388 1510.33 126.414 1549.6 177.312C1588.87 228.212 1621.26 298.954 1645.33 384.492C1693.48 555.567 1708.32 785.728 1678.42 1034.42Z" stroke="#2E2E2E"/>
<path d="M1677.58 1040.94C1643.34 1289.07 1570.54 1507.91 1480.53 1661.16C1435.53 1737.78 1386.23 1797.97 1335.33 1837.23C1284.42 1876.49 1231.94 1894.79 1180.53 1887.7C1129.11 1880.6 1083.55 1848.78 1045.18 1797.2C1006.8 1745.62 975.65 1674.33 953.074 1588.38C907.922 1416.49 897.101 1186.11 931.335 937.979C965.569 689.849 1038.37 471.002 1128.38 317.76C1173.39 241.139 1222.68 180.942 1273.59 141.682C1324.49 102.424 1376.97 84.1257 1428.39 91.2191C1479.8 98.3124 1525.36 130.138 1563.74 181.714C1602.11 233.291 1633.26 304.588 1655.84 390.534C1700.99 562.423 1711.81 792.807 1677.58 1040.94Z" stroke="#2E2E2E"/>
<path d="M1676.62 1047.44C1638.06 1294.94 1561.45 1512.48 1468.78 1664.13C1422.45 1739.95 1372.11 1799.28 1320.53 1837.64C1268.94 1876.01 1216.15 1893.39 1164.87 1885.4C1113.59 1877.41 1068.58 1844.79 1031.12 1792.55C993.651 1740.31 963.747 1668.48 942.674 1582.16C900.529 1409.51 893.731 1178.97 932.29 931.474C970.85 683.98 1047.46 466.436 1140.13 314.79C1186.47 238.965 1236.8 179.637 1288.39 141.272C1339.97 102.908 1392.76 85.5289 1444.04 93.5184C1495.32 101.508 1540.33 134.124 1577.79 186.362C1615.26 238.601 1645.17 310.43 1666.24 396.757C1708.38 569.408 1715.18 799.946 1676.62 1047.44Z" stroke="#2E2E2E"/>
<path d="M1675.55 1053.93C1632.68 1300.71 1552.29 1516.88 1456.98 1666.89C1409.33 1741.89 1357.97 1800.34 1305.72 1837.79C1253.48 1875.25 1200.39 1891.71 1149.25 1882.82C1098.12 1873.94 1053.69 1840.54 1017.14 1787.66C980.594 1734.78 951.949 1662.43 932.386 1575.75C893.26 1402.39 890.486 1171.77 933.359 924.988C976.232 678.204 1056.63 462.031 1151.93 312.024C1199.58 237.02 1250.95 178.579 1303.19 141.12C1355.44 103.663 1408.52 87.2073 1459.66 96.0907C1510.79 104.974 1555.22 138.371 1591.77 191.254C1628.32 244.139 1656.96 316.48 1676.53 403.161C1715.65 576.521 1718.43 807.143 1675.55 1053.93Z" stroke="#2E2E2E"/>
<path d="M1674.37 1060.39C1627.2 1306.39 1543.04 1521.13 1445.14 1669.45C1396.18 1743.61 1343.81 1801.15 1290.91 1837.69C1238.03 1874.23 1184.66 1889.75 1133.69 1879.98C1082.72 1870.21 1038.88 1836.04 1003.26 1782.53C967.635 1729.01 940.257 1656.18 922.21 1569.17C886.116 1395.15 887.367 1164.52 934.54 918.521C981.714 672.524 1065.87 457.786 1163.78 309.466C1212.73 235.305 1265.11 177.77 1318 141.228C1370.89 104.688 1424.25 89.1616 1475.23 98.9359C1526.2 108.71 1570.04 142.877 1605.66 196.39C1641.28 249.905 1668.66 322.735 1686.7 409.744C1722.8 583.761 1721.55 814.396 1674.37 1060.39Z" stroke="#2E2E2E"/>
<path d="M1673.08 1066.84C1621.62 1311.98 1533.73 1525.21 1433.25 1671.8C1383.01 1745.1 1329.63 1801.71 1276.11 1837.32C1222.59 1872.93 1168.96 1887.53 1118.17 1876.86C1067.38 1866.2 1024.14 1831.27 989.462 1777.15C954.78 1723.02 928.677 1649.72 912.151 1562.41C879.1 1387.79 884.376 1157.21 935.835 912.076C987.295 666.939 1075.18 453.703 1175.66 307.114C1225.91 233.818 1279.28 177.206 1332.8 141.593C1386.32 105.982 1439.95 91.3889 1490.74 102.051C1541.53 112.714 1584.77 147.641 1619.45 201.767C1654.13 255.896 1680.24 329.192 1696.76 416.503C1729.81 591.123 1724.54 821.702 1673.08 1066.84Z" stroke="#2E2E2E"/>
<path d="M1671.67 1073.26C1615.94 1317.46 1524.34 1529.13 1421.32 1673.94C1369.81 1746.35 1315.46 1802.02 1261.32 1836.7C1207.19 1871.37 1153.31 1885.02 1102.71 1873.48C1052.11 1861.93 1009.49 1826.25 975.764 1771.53C942.031 1716.8 917.211 1643.06 902.212 1555.48C872.213 1380.31 881.512 1149.86 937.242 905.653C992.972 661.452 1084.57 449.782 1187.59 304.969C1239.11 232.561 1293.46 176.889 1347.59 142.216C1401.73 107.544 1455.6 93.8895 1506.2 105.437C1556.8 116.984 1599.42 152.66 1633.15 207.384C1666.88 262.109 1691.7 335.85 1706.7 423.436C1736.7 598.607 1727.4 829.058 1671.67 1073.26Z" stroke="#2E2E2E"/>
<path d="M1670.15 1079.66C1610.17 1322.85 1514.89 1532.89 1409.36 1675.88C1356.59 1747.38 1301.27 1802.09 1246.54 1835.82C1191.81 1869.54 1137.7 1882.25 1087.31 1869.82C1036.93 1857.39 994.935 1820.98 962.164 1765.67C929.392 1710.37 905.863 1636.21 892.394 1548.37C865.457 1372.7 878.777 1142.45 938.76 899.258C998.744 656.066 1094.02 446.027 1199.56 303.034C1252.32 231.537 1307.64 176.822 1362.37 143.099C1417.1 109.377 1471.21 96.6643 1521.6 109.093C1571.99 121.522 1613.98 157.936 1646.75 213.24C1679.52 268.546 1703.05 342.708 1716.52 430.543C1743.46 606.21 1730.14 836.464 1670.15 1079.66Z" stroke="#2E2E2E"/>
<path d="M1668.52 1086.03C1604.3 1328.13 1505.38 1536.48 1397.36 1677.61C1343.35 1748.17 1287.09 1801.91 1231.78 1834.68C1176.47 1867.44 1122.15 1879.2 1071.98 1865.9C1021.82 1852.59 980.47 1815.45 948.669 1759.58C916.867 1703.71 894.636 1629.15 882.702 1541.09C858.835 1364.98 876.172 1135 940.39 892.89C1004.61 650.782 1103.54 442.438 1211.55 301.309C1265.56 230.743 1321.82 177.002 1377.13 144.239C1432.44 111.477 1486.76 99.711 1536.93 113.017C1587.09 126.323 1628.44 163.465 1660.24 219.333C1692.05 275.202 1714.28 349.764 1726.21 437.82C1750.08 613.931 1732.74 843.917 1668.52 1086.03Z" stroke="#2E2E2E"/>
<path d="M1666.78 1092.36C1598.35 1333.31 1495.8 1539.9 1385.34 1679.12C1330.11 1748.73 1272.91 1801.49 1217.04 1833.28C1161.17 1865.07 1106.65 1875.89 1056.72 1861.71C1006.8 1847.53 966.104 1809.67 935.283 1753.25C904.461 1696.84 883.535 1621.9 873.14 1533.65C852.35 1357.15 873.697 1127.5 942.131 886.55C1010.57 645.599 1113.12 439.014 1223.58 299.791C1278.81 230.179 1336 177.428 1391.88 145.635C1447.75 113.843 1502.27 103.027 1552.19 117.207C1602.12 131.386 1642.81 169.244 1673.63 225.658C1704.45 282.074 1725.38 357.013 1735.77 445.264C1756.56 621.764 1735.22 851.413 1666.78 1092.36Z" stroke="#2E2E2E"/>
<path d="M1664.93 1098.67C1592.3 1338.39 1486.16 1543.16 1373.29 1680.43C1316.85 1749.07 1258.75 1800.81 1202.32 1831.62C1145.91 1862.44 1091.21 1872.3 1041.54 1857.25C991.867 1842.2 951.841 1803.64 922.009 1746.7C892.176 1689.75 872.561 1614.46 863.707 1526.04C846.001 1349.2 871.353 1119.96 943.982 880.243C1016.61 640.524 1122.75 435.759 1235.62 298.485C1292.06 229.847 1350.17 178.103 1406.59 147.29C1463.01 116.478 1517.71 106.615 1567.38 121.664C1617.05 136.713 1657.07 175.275 1686.9 232.218C1716.74 289.164 1736.35 364.456 1745.21 452.875C1762.91 629.711 1737.56 858.952 1664.93 1098.67Z" stroke="#2E2E2E"/>
<path d="M1662.97 1104.95C1586.17 1343.36 1476.47 1546.24 1361.22 1681.52C1303.59 1749.17 1244.59 1799.89 1187.64 1829.71C1130.69 1859.54 1075.83 1868.44 1026.43 1852.53C977.033 1836.62 937.685 1797.36 908.852 1739.91C880.018 1682.45 861.719 1606.83 854.41 1518.26C839.793 1341.15 869.142 1112.38 945.943 873.967C1022.74 635.552 1132.44 432.671 1247.69 297.388C1305.32 229.746 1364.32 179.023 1421.27 149.2C1478.22 119.378 1533.08 110.471 1582.48 126.384C1631.88 142.297 1671.23 181.552 1700.06 239.007C1728.9 296.465 1747.19 372.088 1754.5 460.648C1769.12 637.767 1739.77 866.53 1662.97 1104.95Z" stroke="#2E2E2E"/>
<path d="M1660.9 1111.19C1579.95 1348.22 1466.73 1549.16 1349.13 1682.41C1290.33 1749.04 1230.46 1798.72 1173 1827.55C1115.54 1856.37 1060.53 1864.32 1011.41 1847.55C962.298 1830.77 923.641 1790.84 895.815 1732.89C867.988 1674.94 851.012 1599 845.25 1510.33C833.725 1332.98 867.063 1104.77 948.013 867.729C1028.96 630.69 1142.19 429.755 1259.78 296.504C1318.58 229.877 1378.46 180.192 1435.92 151.367C1493.38 122.543 1548.39 114.595 1597.5 131.368C1646.62 148.141 1685.27 188.077 1713.1 246.027C1740.93 303.978 1757.9 379.909 1763.66 468.584C1775.19 645.93 1741.85 874.147 1660.9 1111.19Z" stroke="#2E2E2E"/>
<path d="M1658.72 1117.39C1573.65 1352.98 1456.93 1551.91 1337.03 1683.09C1277.08 1748.68 1216.35 1797.31 1158.39 1825.13C1100.43 1852.94 1045.3 1859.93 996.481 1842.3C947.666 1824.67 909.713 1784.07 882.902 1725.64C856.091 1667.21 840.442 1591 836.229 1502.24C827.801 1324.72 865.116 1097.12 950.192 861.527C1035.27 625.938 1151.98 427.009 1271.88 295.831C1331.83 230.24 1392.57 181.607 1450.52 153.79C1508.48 125.973 1563.62 118.987 1612.43 136.614C1661.25 154.242 1699.2 194.846 1726.01 253.273C1752.82 311.701 1768.47 387.917 1772.68 476.678C1781.11 654.199 1743.8 881.799 1658.72 1117.39Z" stroke="#2E2E2E"/>
<path d="M1656.43 1123.55C1567.26 1357.62 1447.1 1554.48 1324.92 1683.55C1263.83 1748.08 1202.26 1795.65 1143.83 1822.45C1085.4 1849.25 1030.14 1855.27 981.643 1836.8C933.144 1818.32 895.905 1777.06 870.118 1718.17C844.33 1659.29 830.015 1582.81 827.351 1493.99C822.023 1316.35 863.304 1089.43 952.478 855.365C1041.65 621.295 1161.82 424.434 1283.99 295.368C1345.08 230.834 1406.65 183.269 1465.09 156.467C1523.52 129.666 1578.77 123.642 1627.27 142.119C1675.77 160.596 1713.01 201.857 1738.79 260.742C1764.58 319.63 1778.9 396.107 1781.56 484.928C1786.89 662.569 1745.61 889.483 1656.43 1123.55Z" stroke="#2E2E2E"/>
<path d="M1654.04 1129.67C1560.8 1362.15 1437.21 1556.88 1312.8 1683.8C1250.6 1747.26 1188.21 1793.74 1129.31 1819.52C1070.42 1845.3 1015.07 1850.35 966.905 1831.03C918.736 1811.71 882.222 1769.81 857.467 1710.48C832.711 1651.15 819.732 1574.44 818.619 1485.58C816.392 1307.88 861.627 1081.72 954.873 849.241C1048.12 616.763 1171.7 422.029 1296.11 295.115C1358.31 231.657 1420.71 185.174 1479.6 159.396C1538.49 133.618 1593.84 128.56 1642.01 147.881C1690.18 167.201 1726.69 209.105 1751.45 268.432C1776.2 327.761 1789.18 404.476 1790.29 493.33C1792.52 671.037 1747.29 897.196 1654.04 1129.67Z" stroke="#2E2E2E"/>
<path d="M1651.54 1135.75C1554.25 1366.57 1427.29 1559.11 1300.69 1683.84C1237.38 1746.2 1174.19 1791.59 1114.85 1816.33C1055.52 1841.08 1000.09 1845.17 952.269 1825.01C904.444 1804.85 868.668 1762.32 844.952 1702.57C821.235 1642.82 809.597 1565.89 810.034 1477.03C810.909 1299.31 860.085 1073.97 957.373 843.16C1054.66 612.346 1181.62 419.798 1308.23 295.075C1371.53 232.712 1434.73 187.324 1494.06 162.578C1553.39 137.833 1608.82 133.741 1656.64 153.9C1704.47 174.058 1740.25 216.593 1763.96 276.342C1787.68 336.094 1799.32 413.024 1798.88 501.884C1798 679.603 1748.83 904.938 1651.54 1135.75Z" stroke="#2E2E2E"/>
<path d="M1648.93 1141.79C1547.63 1370.87 1417.33 1561.17 1288.57 1683.67C1224.19 1744.91 1160.21 1789.19 1100.45 1812.9C1040.7 1836.61 985.206 1839.73 937.74 1818.74C890.275 1797.75 855.246 1754.6 832.576 1694.44C809.906 1634.29 799.612 1557.16 801.6 1468.33C805.577 1290.65 858.678 1066.21 959.979 837.125C1061.28 608.044 1191.58 417.741 1320.35 295.246C1384.73 233.998 1448.71 189.72 1508.46 166.013C1568.22 142.307 1623.71 139.183 1671.17 160.173C1718.64 181.163 1753.67 224.316 1776.34 284.47C1799.01 344.627 1809.3 421.748 1807.31 510.588C1803.34 688.264 1750.24 912.706 1648.93 1141.79Z" stroke="#2E2E2E"/>
<path d="M1646.22 1147.78C1540.94 1375.05 1407.33 1563.05 1276.45 1683.28C1211.01 1743.4 1146.27 1786.55 1086.11 1809.21C1025.95 1831.87 970.416 1834.03 923.323 1812.21C876.231 1790.4 841.96 1746.64 820.344 1686.1C798.727 1625.56 789.781 1548.27 793.319 1459.48C800.396 1281.9 857.406 1058.41 962.69 831.136C1067.97 603.858 1201.58 415.858 1332.46 295.629C1397.9 235.514 1462.64 192.359 1522.8 169.699C1582.96 147.039 1638.5 144.885 1685.59 166.7C1732.68 188.515 1766.95 232.273 1788.57 292.813C1810.19 353.356 1819.13 430.646 1815.59 519.437C1808.52 697.016 1751.51 920.498 1646.22 1147.78Z" stroke="#2E2E2E"/>
</svg>